# Created by FreeCAD <http://www.freecadweb.org>
v -0.449996 0.790001 -0.390002
v 0.450004 0.790001 -0.390002
v 0.450004 0.010001 -0.390002
v -0.449996 0.010001 -0.390002
v 0.450004 0.800001 0.389998
v 0.450004 0.790001 0.389998
v 0.450004 0.799751 0.392223
v 0.450004 0.799011 0.394337
v 0.450004 0.797820 0.396233
v 0.450004 0.796236 0.397816
v 0.450004 0.794340 0.399008
v 0.450004 0.792226 0.399747
v 0.450004 0.790001 0.399998
v 0.450004 0.800001 -0.390002
v 0.450004 0.797820 -0.396237
v 0.450004 0.799011 -0.394341
v 0.450004 0.799751 -0.392227
v 0.450004 0.010001 0.399998
v 0.450004 0.010001 0.389998
v 0.450004 0.007776 0.399747
v 0.450004 0.005662 0.399008
v 0.450004 0.003766 0.397816
v 0.450004 0.002183 0.396233
v 0.450004 0.796236 -0.397820
v 0.450004 0.000992 0.394337
v 0.450004 0.794340 -0.399012
v 0.450004 0.000252 0.392223
v 0.450004 0.792226 -0.399751
v 0.450004 0.000001 0.389998
v 0.450004 0.790001 -0.400002
v 0.450004 0.010001 -0.400002
v 0.450004 0.000001 -0.390002
v 0.450004 0.007776 -0.399751
v 0.450004 0.000252 -0.392227
v 0.450004 0.000992 -0.394341
v 0.450004 0.005662 -0.399012
v 0.450004 0.002183 -0.396237
v 0.450004 0.003766 -0.397820
v -0.449996 0.790001 0.389998
v -0.449996 0.000001 0.389998
v -0.449996 0.010001 0.389998
v -0.449996 0.000252 0.392223
v -0.449996 0.000992 0.394337
v -0.449996 0.002183 0.396233
v -0.449996 0.003766 0.397816
v -0.449996 0.005663 0.399008
v -0.449996 0.007776 0.399747
v -0.449996 0.010001 0.399998
v -0.449996 0.000001 -0.390002
v -0.449996 0.002183 -0.396237
v -0.449996 0.000992 -0.394341
v -0.449996 0.000252 -0.392227
v -0.449996 0.790001 0.399998
v -0.449996 0.792227 0.399747
v -0.449996 0.794340 0.399008
v -0.449996 0.796236 0.397816
v -0.449996 0.797820 0.396233
v -0.449996 0.003766 -0.397820
v -0.449996 0.799011 0.394337
v -0.449996 0.005663 -0.399012
v -0.449996 0.799751 0.392223
v -0.449996 0.007776 -0.399751
v -0.449996 0.800001 0.389998
v -0.449996 0.010001 -0.400002
v -0.449996 0.790001 -0.400002
v -0.449996 0.800001 -0.390002
v -0.449996 0.792227 -0.399751
v -0.449996 0.799751 -0.392227
v -0.449996 0.799011 -0.394341
v -0.449996 0.794340 -0.399012
v -0.449996 0.797820 -0.396237
v -0.449996 0.796236 -0.397820
v 0.793137 0.006267 -0.393135
v 0.792848 0.006423 0.393576
v 0.793582 0.792845 0.393576
v 0.793137 0.793736 -0.393135
v 0.790004 0.203134 -0.400002
v 0.790004 0.400001 -0.400002
v 0.790004 0.596869 -0.400002
v -0.793574 0.793580 0.392842
v -0.793731 0.793134 -0.393135
v -0.789996 0.203212 0.399998
v -0.793574 0.006423 0.392842
v -0.789996 0.400001 0.399998
v -0.789996 0.596790 0.399998
v -0.789996 0.000001 0.196348
v -0.789996 0.000001 -0.000147
v -0.793731 0.006869 -0.393135
v -0.789996 0.000001 -0.196641
v 0.800004 0.203134 -0.390002
v 0.800004 0.400001 -0.390002
v 0.800004 0.596869 -0.390002
v -0.799996 0.596790 0.389998
v -0.799996 0.400001 0.389998
v -0.799996 0.010001 0.196348
v -0.799996 0.203212 0.389998
v -0.799996 0.010001 -0.000147
v -0.799996 0.010001 -0.196641
vn -0.000000 0.000000 -1.000000
vn -0.000000 0.000000 -1.000000
vn -1.000000 0.000003 0.000000
vn -1.000000 0.000003 0.000001
vn -1.000000 0.000003 0.000002
vn -1.000000 0.000002 0.000002
vn -1.000000 0.000002 0.000003
vn -1.000000 0.000001 0.000003
vn -1.000000 0.000000 0.000003
vn -1.000000 -0.000003 0.000000
vn -1.000000 -0.000003 0.000002
vn -1.000000 -0.000003 0.000001
vn -1.000000 -0.000003 0.000000
vn -1.000000 0.000003 -0.000000
vn -1.000000 -0.000000 0.000003
vn -1.000000 -0.000001 0.000003
vn -1.000000 -0.000002 0.000003
vn -1.000000 0.000000 0.000003
vn -1.000000 0.000000 0.000003
vn -1.000000 -0.000002 0.000002
vn -1.000000 -0.000002 0.000002
vn -1.000000 -0.000003 0.000002
vn -1.000000 -0.000002 0.000003
vn -1.000000 -0.000003 0.000001
vn -1.000000 -0.000001 0.000003
vn -1.000000 -0.000003 0.000000
vn -1.000000 -0.000000 0.000003
vn -1.000000 0.000000 0.000003
vn -1.000000 -0.000003 0.000000
vn -1.000000 0.000000 0.000000
vn -1.000000 -0.000000 0.000000
vn -1.000000 0.000000 0.000000
vn -1.000000 0.000000 0.000000
vn -1.000000 0.000000 0.000000
vn -1.000000 0.000000 0.000000
vn -1.000000 0.000000 0.000000
vn -1.000000 0.000000 0.000000
vn -1.000000 0.000000 0.000000
vn 0.000000 1.000000 0.000000
vn 0.000000 1.000000 0.000000
vn 1.000000 -0.000003 0.000000
vn 1.000000 -0.000003 0.000001
vn 1.000000 -0.000003 0.000002
vn 1.000000 -0.000002 0.000002
vn 1.000000 -0.000002 0.000003
vn 1.000000 -0.000001 0.000003
vn 1.000000 -0.000000 0.000003
vn 1.000000 -0.000003 -0.000000
vn 1.000000 -0.000003 -0.000002
vn 1.000000 -0.000003 -0.000001
vn 1.000000 -0.000003 -0.000000
vn 1.000000 -0.000003 -0.000000
vn 1.000000 -0.000000 -0.000003
vn 1.000000 -0.000001 -0.000003
vn 1.000000 -0.000002 -0.000003
vn 1.000000 -0.000000 -0.000003
vn 1.000000 -0.000000 0.000003
vn 1.000000 -0.000002 -0.000002
vn 1.000000 -0.000002 -0.000002
vn 1.000000 -0.000003 -0.000002
vn 1.000000 -0.000002 -0.000003
vn 1.000000 -0.000003 -0.000001
vn 1.000000 -0.000001 -0.000003
vn 1.000000 -0.000003 -0.000000
vn 1.000000 -0.000000 -0.000003
vn 1.000000 -0.000000 -0.000003
vn 1.000000 -0.000000 0.000000
vn 1.000000 0.000000 -0.000000
vn 1.000000 -0.000003 -0.000000
vn 1.000000 0.000000 0.000000
vn 1.000000 -0.000000 0.000000
vn 1.000000 0.000000 0.000000
vn 1.000000 0.000000 -0.000000
vn 1.000000 0.000000 0.000000
vn 1.000000 0.000000 -0.000000
vn 1.000000 0.000000 0.000000
vn -0.000000 -1.000000 0.000000
vn -0.000000 -1.000000 0.000000
vn 0.000000 0.000000 1.000000
vn 0.000000 -0.000000 1.000000
vn 0.018726 -0.999825 0.000206
vn 0.018257 -0.999833 -0.000000
vn 0.018688 -0.000000 0.999825
vn 0.018728 -0.000017 0.999825
vn 0.020813 0.999783 0.001120
vn 0.018257 0.999833 -0.000000
vn 0.019622 -0.034543 -0.999211
vn 0.000000 0.000000 -1.000000
vn 0.000000 0.000000 -1.000000
vn 0.000000 0.000000 -1.000000
vn 0.019622 0.034543 -0.999211
vn -0.018688 0.999825 0.000000
vn -0.019969 0.999801 -0.000563
vn -0.020436 -0.035963 0.999144
vn 0.000000 0.000000 1.000000
vn -0.020436 0.035963 0.999144
vn 0.000000 0.000000 1.000000
vn 0.000000 -0.000000 1.000000
vn -0.018411 -0.999308 0.032324
vn -0.000000 -1.000000 -0.000000
vn -0.019648 -0.999210 -0.034548
vn -0.000000 -1.000000 0.000000
vn -0.000000 -1.000000 0.000000
vn -0.019974 0.000000 -0.999800
vn -0.019974 0.000000 -0.999801
vn 0.999392 -0.034868 0.000374
vn 0.999962 -0.000934 0.008663
vn 0.999958 -0.000000 0.009133
vn 0.999966 -0.000000 0.008195
vn 0.999392 0.034853 -0.000526
vn -0.999468 0.032613 0.000180
vn -0.999968 -0.000000 -0.008000
vn -1.000000 0.000000 0.000000
vn -0.998969 -0.032136 0.032063
vn -0.999972 0.005328 -0.005326
vn -1.000000 0.000000 0.000000
vn -0.999968 0.008000 0.000000
vn -0.999492 0.000000 -0.031870
f 1//1 2//1 3//1
f 1//2 3//2 4//2
f 5//3 6//3 7//3
f 7//4 6//4 8//4
f 8//5 6//5 9//5
f 9//6 6//6 10//6
f 10//7 6//7 11//7
f 11//8 6//8 12//8
f 12//9 6//9 13//9
f 14//10 2//10 5//10
f 15//11 2//11 16//11
f 16//12 2//12 17//12
f 17//13 2//13 14//13
f 5//14 2//14 6//14
f 18//15 19//15 20//15
f 20//16 19//16 21//16
f 21//17 19//17 22//17
f 13//18 19//18 18//18
f 6//19 19//19 13//19
f 19//20 23//20 22//20
f 15//21 24//21 2//21
f 19//22 25//22 23//22
f 24//23 26//23 2//23
f 19//24 27//24 25//24
f 26//25 28//25 2//25
f 19//26 29//26 27//26
f 28//27 30//27 2//27
f 30//28 3//28 2//28
f 19//29 3//29 29//29
f 30//30 31//30 3//30
f 3//31 32//31 29//31
f 31//32 33//32 3//32
f 3//33 34//33 32//33
f 3//34 35//34 34//34
f 33//35 36//35 3//35
f 3//36 37//36 35//36
f 36//37 38//37 3//37
f 3//38 38//38 37//38
f 6//39 1//39 39//39
f 2//40 1//40 6//40
f 40//41 41//41 42//41
f 42//42 41//42 43//42
f 43//43 41//43 44//43
f 44//44 41//44 45//44
f 45//45 41//45 46//45
f 46//46 41//46 47//46
f 47//47 41//47 48//47
f 40//48 49//48 41//48
f 50//49 4//49 51//49
f 51//50 4//50 52//50
f 52//51 4//51 49//51
f 49//52 4//52 41//52
f 53//53 39//53 54//53
f 54//54 39//54 55//54
f 55//55 39//55 56//55
f 48//56 39//56 53//56
f 41//57 39//57 48//57
f 39//58 57//58 56//58
f 50//59 58//59 4//59
f 39//60 59//60 57//60
f 58//61 60//61 4//61
f 39//62 61//62 59//62
f 60//63 62//63 4//63
f 39//64 63//64 61//64
f 62//65 64//65 4//65
f 64//66 1//66 4//66
f 64//67 65//67 1//67
f 1//68 66//68 39//68
f 39//69 66//69 63//69
f 65//70 67//70 1//70
f 1//71 68//71 66//71
f 1//72 69//72 68//72
f 67//73 70//73 1//73
f 1//74 71//74 69//74
f 70//75 72//75 1//75
f 1//76 72//76 71//76
f 4//77 3//77 19//77
f 4//78 19//78 41//78
f 6//79 41//79 19//79
f 6//80 39//80 41//80
f 29//81 73//81 74//81
f 32//82 73//82 29//82
f 75//83 13//83 18//83
f 75//84 18//84 74//84
f 75//85 76//85 5//85
f 76//86 14//86 5//86
f 31//87 77//87 73//87
f 31//88 78//88 77//88
f 31//89 30//89 78//89
f 30//90 79//90 78//90
f 30//91 76//91 79//91
f 63//92 66//92 80//92
f 66//93 81//93 80//93
f 48//94 82//94 83//94
f 84//95 82//95 48//95
f 53//96 80//96 85//96
f 53//97 85//97 84//97
f 53//98 84//98 48//98
f 86//99 40//99 83//99
f 86//100 87//100 40//100
f 88//101 49//101 89//101
f 89//102 49//102 87//102
f 87//103 49//103 40//103
f 81//104 65//104 88//104
f 88//105 65//105 64//105
f 73//106 90//106 74//106
f 74//107 91//107 75//107
f 90//108 91//108 74//108
f 91//109 92//109 75//109
f 92//110 76//110 75//110
f 80//111 81//111 93//111
f 93//112 81//112 94//112
f 94//113 95//113 96//113
f 96//114 95//114 83//114
f 81//115 97//115 94//115
f 94//116 97//116 95//116
f 81//117 98//117 97//117
f 81//118 88//118 98//118
