# Created by FreeCAD <http://www.freecadweb.org>
v 1.030117 0.630405 -0.041490
v 1.004628 0.008273 -0.041490
v 1.000409 0.006658 -0.621848
v 1.000615 1.252341 -0.620285
v 1.004666 1.250948 -0.036538
v 1.020018 0.319304 0.289650
v 1.004995 0.630405 0.620745
v 1.003180 0.006464 0.622853
v 1.019925 0.940710 0.292126
v 1.003248 1.252756 0.623002
v 0.752726 0.005178 -0.624242
v 0.508374 0.631261 -0.620539
v 0.508438 0.006983 -0.622159
v 0.508310 1.252170 -0.622223
v 0.759409 1.254037 -0.624032
v 0.995227 0.009630 -0.619988
v 0.995227 1.249630 -0.619988
v 0.996259 0.009630 -0.619787
v 0.996594 1.249630 -0.619689
v 0.997174 0.009630 -0.619469
v 0.997747 1.249630 -0.619175
v 0.998042 0.009630 -0.618987
v 0.998603 1.249630 -0.618531
v 0.998770 0.009630 -0.618364
v 0.999225 1.249630 -0.617803
v 0.999414 0.009630 -0.617509
v 0.999708 1.249630 -0.616936
v 0.999927 0.009630 -0.616355
v 1.000026 1.249630 -0.616020
v 1.000227 0.009630 -0.614988
v 1.000227 1.249630 -0.614988
v 0.508399 0.008999 -0.005200
v 0.508360 0.007231 0.622325
v 1.000227 0.009630 0.620012
v 0.508511 1.250260 -0.000791
v 1.000227 1.249630 0.620012
v 0.508713 1.252125 0.622286
v 0.508536 0.629218 0.620585
v 0.749754 0.005192 0.624401
v 0.749554 1.254076 0.624412
v -0.989773 1.249630 -0.614988
v 1.000227 1.249630 -0.614988
v 1.000227 0.009630 -0.614988
v -0.989773 0.009630 -0.614988
v 1.000227 0.009630 0.620012
v 1.000227 1.249630 0.620012
v -0.989773 1.249630 0.620012
v -0.989773 0.009630 0.620012
v -1.019684 0.620732 -0.036175
v -0.990583 1.251775 -0.620813
v -0.993991 1.253991 -0.032473
v -0.994199 0.008457 -0.036175
v -0.990118 0.007693 -0.620685
v -0.994919 0.620732 0.623179
v -0.993184 1.252539 0.623311
v -0.994316 0.620732 0.624569
v -0.992726 0.006789 0.623178
v -1.009308 0.314560 0.293502
v -1.009482 0.937394 0.295353
v -0.498106 0.631605 0.624401
v -0.498106 0.007285 0.622628
v -0.741232 1.251503 0.624481
v -0.498106 1.251942 0.622510
v -0.498306 0.623491 -0.624315
v -0.751566 0.008538 -0.624070
v -0.498258 0.007393 -0.622144
v -0.753845 1.250848 -0.624115
v -0.498355 1.251972 -0.622456
v -0.498183 0.005308 -0.001503
v -0.744323 0.005360 -0.620912
v -0.989773 0.009630 0.620012
v -0.989773 1.249630 0.620012
v -0.498230 1.253962 0.000731
v -0.984773 0.009630 -0.619988
v -0.984773 1.249630 -0.619988
v -0.989773 0.009630 -0.614988
v -0.989711 0.009630 -0.615726
v -0.989530 0.009630 -0.616440
v -0.989092 0.009630 -0.617392
v -0.988470 0.009630 -0.618242
v -0.985815 0.009630 -0.619863
v -0.986800 0.009630 -0.619510
v -0.987695 0.009630 -0.618959
v -0.989773 1.249630 -0.614988
v -0.985511 1.249630 -0.619926
v -0.986225 1.249630 -0.619745
v -0.989294 1.249630 -0.617015
v -0.989648 1.249630 -0.616030
v -0.987177 1.249630 -0.619307
v -0.988743 1.249630 -0.617910
v -0.988027 1.249630 -0.618685
vn 0.999136 -0.040935 -0.007148
vn 0.998698 -0.000101 -0.051013
vn 0.999134 0.041033 -0.006835
vn 0.998848 -0.002745 0.047900
vn 0.998667 -0.051585 0.002036
vn 0.999130 -0.040935 -0.007988
vn 0.998850 0.002631 0.047865
vn 0.998684 0.051248 0.002006
vn 0.998971 -0.000031 0.045356
vn 0.999534 0.000028 0.030508
vn 0.999128 0.041040 -0.007650
vn 0.009608 0.009664 -0.999907
vn -0.008507 0.002594 -0.999960
vn -0.007182 -0.002713 -0.999971
vn -0.001067 0.001255 -0.999999
vn 0.015448 -0.011834 -0.999811
vn -0.004445 -0.002595 0.999987
vn -0.004576 0.002712 0.999986
vn -0.001131 0.000000 0.999999
vn -0.214161 -0.000020 0.976798
vn -0.191426 0.000000 0.981507
vn -0.406480 -0.000028 0.913660
vn -0.328327 0.000014 0.944564
vn -0.601530 -0.000021 0.798850
vn -0.485765 0.000018 0.874089
vn -0.760047 -0.000015 0.649868
vn -0.649899 0.000015 0.760021
vn -0.874101 -0.000018 0.485745
vn -0.798803 0.000021 0.601593
vn -0.944532 -0.000014 0.328418
vn -0.913677 0.000028 0.406441
vn -0.981518 0.000000 0.191372
vn -0.976790 0.000020 0.214201
vn -0.004865 0.999984 0.002817
vn -0.005462 0.999970 0.005462
vn -0.005335 0.999980 -0.003267
vn -0.001284 0.999999 0.000000
vn -0.000000 1.000000 0.000000
vn 0.000000 1.000000 -0.000000
vn 0.000001 1.000000 -0.000001
vn 0.000000 1.000000 -0.000000
vn 0.000000 1.000000 -0.000000
vn 0.000000 1.000000 -0.000000
vn -0.005062 -0.999983 0.002995
vn -0.001280 -0.999999 0.000000
vn 0.000000 -1.000000 0.000000
vn 0.000000 -1.000000 0.000000
vn 0.000000 -1.000000 0.000000
vn 0.000000 -1.000000 0.000000
vn 0.000000 -1.000000 0.000000
vn 0.000000 -1.000000 0.000000
vn -0.005117 -0.999982 -0.003072
vn -0.005239 -0.999973 0.005239
vn -1.000000 0.000000 0.000000
vn -1.000000 0.000000 0.000000
vn -0.004690 -0.002796 -0.999985
vn -0.001166 0.000000 -0.999999
vn -0.004613 0.002732 -0.999986
vn -0.008422 -0.999961 -0.002818
vn 0.005002 -0.999984 -0.002713
vn -0.001852 -0.999984 -0.005336
vn -0.007363 -0.999968 0.003266
vn -0.001040 -0.999983 0.005761
vn 0.005950 -0.999979 0.002740
vn 0.005190 0.999983 -0.002730
vn -0.008074 0.999963 -0.002991
vn -0.001777 0.999984 -0.005419
vn 0.006996 0.999973 0.002338
vn -0.000978 0.999983 0.005667
vn -0.007414 0.999968 0.003076
vn 0.006089 0.003361 0.999976
vn -0.008573 0.002800 0.999959
vn -0.000336 0.005984 0.999982
vn 0.005540 -0.003611 0.999978
vn -0.000308 -0.006006 0.999982
vn -0.008806 -0.002728 0.999958
vn 0.000000 0.000000 -1.000000
vn 0.000000 -0.000000 -1.000000
vn 1.000000 -0.000000 0.000000
vn 1.000000 -0.000000 0.000000
vn 0.000000 1.000000 0.000000
vn 0.000000 1.000000 -0.000000
vn -1.000000 0.000000 0.000000
vn -1.000000 0.000000 0.000000
vn -0.000000 -1.000000 0.000000
vn -0.000000 -1.000000 0.000000
vn 0.000000 0.000000 1.000000
vn 0.000000 0.000000 1.000000
vn 0.999159 -0.040573 0.005941
vn 0.999111 0.041587 0.006922
vn 0.998743 0.000379 0.050123
vn 0.917204 -0.002436 -0.398410
vn 0.917202 0.003278 -0.398409
vn 0.998668 0.051557 -0.002101
vn 0.999109 0.041587 0.007176
vn 0.998893 0.003569 -0.046911
vn 0.998735 -0.050255 -0.001340
vn 0.998891 -0.002733 -0.047013
vn 0.999516 0.000372 -0.031113
vn 0.999032 0.000410 -0.043983
vn 0.999144 -0.040585 0.008018
vn -0.000401 0.002840 -0.999996
vn -0.001115 0.002262 -0.999997
vn -0.008102 -0.003048 -0.999963
vn -0.000339 -0.000003 -1.000000
vn 0.004638 -0.002000 -0.999987
vn 0.014206 -0.005453 0.999884
vn -0.007587 0.003523 0.999965
vn 0.007248 0.000105 0.999974
vn 0.013969 0.005372 0.999888
vn -0.006482 -0.002958 0.999975
vn -0.001006 0.999995 -0.003168
vn 0.003923 0.999992 0.000735
vn 0.009487 0.999948 -0.003686
vn -0.008246 0.999960 0.003361
vn -0.005334 -0.002840 0.999982
vn -0.005096 0.003048 0.999982
vn -0.008927 0.000000 0.999960
vn 0.001779 -0.999993 -0.003249
vn -0.004103 -0.999989 -0.002209
vn 0.000200 -0.999992 -0.003865
vn 0.004381 -0.999985 0.003192
vn -0.000404 -0.999987 0.005149
vn -0.003863 -0.999986 0.003744
vn -0.004447 -0.003524 -0.999984
vn -0.008893 0.000000 -0.999960
vn -0.005087 0.002957 -0.999983
vn 0.003027 0.224175 0.974544
vn 0.001600 0.937875 0.346971
vn -0.004788 -0.999983 0.003168
vn -0.008793 -0.999961 -0.000000
vn 0.000000 -1.000000 0.000000
vn 0.000000 -1.000000 0.000000
vn 0.000000 -1.000000 0.000000
vn -0.000001 -1.000000 -0.000004
vn -0.000001 -1.000000 -0.000001
vn -0.000001 -1.000000 -0.000001
vn -0.000000 -1.000000 -0.000000
vn -0.004601 -0.999984 -0.003359
vn -0.004619 -0.999979 -0.004619
vn -0.004717 0.999984 0.003250
vn -0.004814 0.999983 -0.003192
vn -0.008812 0.999961 -0.000000
vn -0.004839 0.999977 -0.004839
vn -0.000000 1.000000 -0.000000
vn 0.000000 1.000000 0.000000
vn -0.000000 1.000000 -0.000000
vn 0.000000 1.000000 0.000000
vn 0.000000 1.000000 0.000000
vn 0.000000 1.000000 0.000000
vn -0.000000 1.000000 -0.000000
vn -1.000000 0.000000 -0.000000
vn -1.000000 0.000000 0.000000
vn -0.996416 0.000000 -0.084591
vn -0.992890 0.000021 -0.119035
vn -0.941109 0.000022 -0.338104
vn -0.969472 -0.000011 -0.245200
vn -0.851732 0.000020 -0.523977
vn -0.908513 -0.000021 -0.417857
vn -0.734192 0.000020 -0.678941
vn -0.806973 -0.000020 -0.590588
vn -0.590551 0.000020 -0.807000
vn -0.678941 -0.000020 -0.734192
vn -0.417857 0.000021 -0.908513
vn -0.523977 -0.000020 -0.851732
vn -0.245200 0.000011 -0.969472
vn -0.338072 -0.000022 -0.941120
vn -0.084591 0.000000 -0.996416
vn -0.119085 -0.000021 -0.992884
f 1//1 2//1 3//1
f 1//2 3//2 4//2
f 1//3 4//3 5//3
f 6//4 7//4 8//4
f 6//5 8//5 2//5
f 6//6 2//6 1//6
f 9//7 10//7 7//7
f 9//8 5//8 10//8
f 9//9 7//9 6//9
f 9//10 6//10 1//10
f 9//11 1//11 5//11
f 11//12 12//12 3//12
f 13//13 12//13 11//13
f 14//14 15//14 12//14
f 12//15 4//15 3//15
f 15//16 4//16 12//16
f 12//17 13//17 16//17
f 17//18 14//18 12//18
f 17//19 12//19 16//19
f 17//20 18//20 19//20
f 16//21 18//21 17//21
f 19//22 20//22 21//22
f 18//23 20//23 19//23
f 21//24 22//24 23//24
f 20//25 22//25 21//25
f 23//26 24//26 25//26
f 22//27 24//27 23//27
f 25//28 26//28 27//28
f 24//29 26//29 25//29
f 27//30 28//30 29//30
f 26//31 28//31 27//31
f 29//32 30//32 31//32
f 28//33 30//33 29//33
f 32//34 33//34 34//34
f 30//35 16//35 13//35
f 30//36 13//36 32//36
f 30//37 32//37 34//37
f 18//38 16//38 30//38
f 28//39 18//39 30//39
f 20//40 18//40 28//40
f 26//41 20//41 28//41
f 22//42 20//42 26//42
f 24//43 22//43 26//43
f 35//44 36//44 37//44
f 31//45 36//45 35//45
f 21//46 23//46 25//46
f 21//47 25//47 27//47
f 19//48 27//48 29//48
f 19//49 21//49 27//49
f 17//50 29//50 31//50
f 17//51 19//51 29//51
f 14//52 31//52 35//52
f 14//53 17//53 31//53
f 31//54 30//54 34//54
f 31//55 34//55 36//55
f 38//56 34//56 33//56
f 36//57 34//57 38//57
f 37//58 36//58 38//58
f 33//59 32//59 39//59
f 39//60 2//60 8//60
f 32//61 2//61 39//61
f 13//62 11//62 32//62
f 32//63 11//63 2//63
f 11//64 3//64 2//64
f 10//65 5//65 40//65
f 40//66 35//66 37//66
f 5//67 35//67 40//67
f 4//68 15//68 5//68
f 5//69 15//69 35//69
f 15//70 14//70 35//70
f 8//71 7//71 39//71
f 39//72 38//72 33//72
f 7//73 38//73 39//73
f 10//74 40//74 7//74
f 7//75 40//75 38//75
f 40//76 37//76 38//76
f 41//77 42//77 43//77
f 41//78 43//78 44//78
f 45//79 42//79 46//79
f 43//80 42//80 45//80
f 46//81 41//81 47//81
f 42//82 41//82 46//82
f 47//83 44//83 48//83
f 41//84 44//84 47//84
f 48//85 43//85 45//85
f 44//86 43//86 48//86
f 45//87 47//87 48//87
f 46//88 47//88 45//88
f 49//89 50//89 51//89
f 49//90 52//90 53//90
f 49//91 53//91 50//91
f 54//92 55//92 56//92
f 54//93 56//93 57//93
f 58//94 57//94 52//94
f 58//95 52//95 49//95
f 58//96 54//96 57//96
f 59//97 51//97 55//97
f 59//98 55//98 54//98
f 59//99 58//99 49//99
f 59//100 54//100 58//100
f 59//101 49//101 51//101
f 56//102 60//102 61//102
f 56//103 61//103 57//103
f 62//104 63//104 60//104
f 62//105 60//105 56//105
f 55//106 62//106 56//106
f 64//107 53//107 65//107
f 64//108 65//108 66//108
f 50//109 53//109 64//109
f 67//110 50//110 64//110
f 68//111 67//111 64//111
f 69//112 57//112 61//112
f 53//113 57//113 69//113
f 70//114 53//114 69//114
f 66//115 70//115 69//115
f 61//116 60//116 71//116
f 63//117 72//117 60//117
f 60//118 72//118 71//118
f 73//119 63//119 62//119
f 51//120 62//120 55//120
f 51//121 73//121 62//121
f 67//122 68//122 73//122
f 67//123 73//123 51//123
f 50//124 67//124 51//124
f 74//125 64//125 66//125
f 74//126 75//126 64//126
f 75//127 68//127 64//127
f 66//128 53//128 70//128
f 65//129 53//129 66//129
f 71//130 69//130 61//130
f 71//131 76//131 69//131
f 77//132 78//132 76//132
f 78//133 79//133 76//133
f 79//134 80//134 76//134
f 81//135 74//135 82//135
f 82//136 74//136 83//136
f 83//137 74//137 80//137
f 80//138 74//138 76//138
f 76//139 66//139 69//139
f 74//140 66//140 76//140
f 63//141 73//141 72//141
f 68//142 84//142 73//142
f 73//143 84//143 72//143
f 68//144 75//144 84//144
f 85//145 86//145 75//145
f 84//146 87//146 88//146
f 86//147 89//147 75//147
f 84//148 90//148 87//148
f 75//149 91//149 84//149
f 84//150 91//150 90//150
f 89//151 91//151 75//151
f 84//152 76//152 72//152
f 72//153 76//153 71//153
f 77//154 76//154 84//154
f 77//155 84//155 88//155
f 78//156 88//156 87//156
f 78//157 77//157 88//157
f 79//158 87//158 90//158
f 79//159 78//159 87//159
f 80//160 90//160 91//160
f 80//161 79//161 90//161
f 83//162 91//162 89//162
f 83//163 80//163 91//163
f 82//164 89//164 86//164
f 82//165 83//165 89//165
f 81//166 86//166 85//166
f 81//167 82//167 86//167
f 74//168 85//168 75//168
f 74//169 81//169 85//169
