# Created by FreeCAD <http://www.freecadweb.org>
v 0.250003 0.485000 0.220003
v -0.249997 0.485000 -0.229997
v -0.249997 0.485000 0.220003
v 0.250003 0.485000 -0.229997
v -0.249997 0.473338 0.234627
v -0.249997 0.470000 0.235003
v 0.250003 0.470000 0.235003
v 0.250003 0.473338 0.234626
v -0.249997 0.476508 0.233517
v 0.250003 0.476508 0.233517
v -0.249997 0.479352 0.231730
v 0.250003 0.479352 0.231730
v -0.249997 0.481727 0.229355
v 0.250003 0.481727 0.229355
v -0.249997 0.483514 0.226511
v 0.250003 0.483514 0.226511
v -0.249997 0.484624 0.223340
v 0.250003 0.484624 0.223340
v -0.249997 0.496727 0.239355
v -0.249997 0.494352 0.241730
v -0.249997 0.001485 -0.246506
v -0.249997 0.018272 -0.239350
v -0.249997 0.016485 -0.236506
v -0.249997 0.005647 -0.251725
v -0.249997 0.003272 -0.249350
v -0.249997 0.498514 0.236511
v -0.249997 0.008492 -0.253512
v -0.249997 0.011662 0.244627
v -0.249997 0.020647 0.231730
v -0.249997 0.015000 0.245003
v -0.249997 0.499624 0.233340
v -0.249997 0.011662 -0.254621
v -0.249997 0.020647 -0.241725
v -0.249997 0.001485 0.236511
v -0.249997 0.018272 0.229355
v -0.249997 0.003272 0.239355
v -0.249997 0.005647 0.241730
v -0.249997 0.008492 0.243517
v -0.249997 0.023492 0.233517
v -0.249997 0.500000 0.230003
v -0.249997 -0.000000 0.230003
v -0.249997 0.016485 0.226511
v -0.249997 0.000376 0.233340
v -0.249997 0.015000 -0.254997
v -0.249997 0.023492 -0.243512
v -0.249997 0.026662 0.234627
v -0.249997 0.026662 -0.244621
v -0.249997 0.015376 0.223340
v -0.249997 0.030000 0.235003
v -0.249997 0.030000 -0.244997
v -0.249997 0.015000 0.220003
v -0.249997 -0.000000 -0.239997
v -0.249997 0.485000 0.245003
v -0.249997 0.500000 -0.239997
v -0.249997 0.015000 -0.229997
v -0.249997 0.483514 -0.236506
v -0.249997 0.484624 -0.233335
v -0.249997 0.488338 0.244627
v -0.249997 0.470000 -0.244997
v -0.249997 0.485000 -0.254997
v -0.249997 0.473338 -0.244621
v -0.249997 0.476508 -0.243512
v -0.249997 0.479352 -0.241725
v -0.249997 0.488338 -0.254621
v -0.249997 0.481727 -0.239350
v -0.249997 0.015376 -0.233335
v -0.249997 0.499624 -0.243335
v -0.249997 0.498514 -0.246506
v -0.249997 0.491508 -0.253512
v -0.249997 0.491508 0.243517
v -0.249997 0.496727 -0.249350
v -0.249997 0.494352 -0.251725
v -0.249997 0.000376 -0.243335
v 0.250003 0.470000 -0.244997
v 0.250003 0.473338 -0.244621
v 0.250003 0.476508 -0.243512
v 0.250003 0.479352 -0.241725
v 0.250003 0.481727 -0.239350
v 0.250003 0.483514 -0.236506
v 0.250003 0.484624 -0.233335
v 0.250003 0.018272 0.229355
v 0.250003 0.003272 0.239355
v 0.250003 0.005647 0.241730
v 0.250003 0.498514 -0.246506
v 0.250003 0.494352 -0.251725
v 0.250003 0.496727 -0.249350
v 0.250003 0.016485 0.226511
v 0.250003 0.001485 0.236511
v 0.250003 0.491508 -0.253512
v 0.250003 0.498514 0.236511
v 0.250003 0.496727 0.239355
v 0.250003 0.494352 0.241730
v 0.250003 0.491508 0.243517
v 0.250003 0.488338 0.244626
v 0.250003 0.000376 0.233340
v 0.250003 0.488338 -0.254621
v 0.250003 0.485000 0.245003
v 0.250003 0.500000 0.230003
v 0.250003 0.499624 0.233340
v 0.250003 0.015000 0.220003
v 0.250003 -0.000000 0.230003
v 0.250003 0.015376 0.223340
v 0.250003 0.485000 -0.254997
v 0.250003 0.015000 -0.229997
v 0.250003 0.015000 0.245003
v 0.250003 0.030000 0.235003
v 0.250003 0.026662 0.234626
v 0.250003 0.023492 0.233517
v 0.250003 0.030000 -0.244997
v 0.250003 0.015000 -0.254997
v 0.250003 0.026662 -0.244621
v 0.250003 0.500000 -0.239997
v 0.250003 0.023492 -0.243512
v 0.250003 0.020647 -0.241725
v 0.250003 0.020647 0.231730
v 0.250003 0.011662 0.244626
v 0.250003 0.016485 -0.236506
v 0.250003 -0.000000 -0.239997
v 0.250003 0.015376 -0.233335
v 0.250003 0.011662 -0.254621
v 0.250003 0.018272 -0.239350
v 0.250003 0.000376 -0.243335
v 0.250003 0.008492 -0.253512
v 0.250003 0.001485 -0.246506
v 0.250003 0.008492 0.243517
v 0.250003 0.003272 -0.249350
v 0.250003 0.005647 -0.251725
v 0.250003 0.499624 -0.243335
v -0.484997 -0.000000 0.115353
v -0.489263 0.009633 0.235370
v -0.484997 -0.000000 -0.004663
v -0.484997 -0.000000 -0.124680
v -0.489696 0.009398 -0.244697
v -0.489696 0.490602 -0.244697
v -0.489263 0.490367 0.235370
v -0.484997 0.129816 0.245003
v -0.484997 0.250000 0.245003
v -0.484997 0.370183 0.245003
v 0.489702 0.009398 0.234702
v 0.489702 0.490602 0.234702
v 0.490370 0.490367 -0.244263
v 0.490003 0.010000 -0.244997
v -0.499997 0.370183 0.230003
v -0.499997 0.250000 0.230003
v -0.499997 0.015000 -0.004663
v -0.499997 0.129816 0.230003
v -0.499997 0.015000 -0.124680
v -0.499997 0.015000 -0.184688
v -0.499997 0.015000 -0.214692
v -0.499997 0.015000 -0.229694
v -0.499997 0.015000 -0.237195
v -0.499997 0.015000 -0.239071
v -0.499997 0.015000 -0.240946
v -0.499997 0.015000 -0.242821
vn 0.000000 1.000000 0.000000
vn 0.000000 1.000000 -0.000000
vn 0.000000 0.111967 0.993712
vn 0.000000 0.111963 0.993712
vn 0.000000 0.330279 0.943883
vn 0.000000 0.330278 0.943884
vn 0.000000 0.532030 0.846726
vn 0.000000 0.532033 0.846724
vn 0.000000 0.707107 0.707107
vn 0.000000 0.707107 0.707107
vn 0.000000 0.846728 0.532026
vn 0.000000 0.846724 0.532033
vn 0.000000 0.943883 0.330280
vn 0.000000 0.943882 0.330282
vn 0.000000 0.993712 0.111963
vn 0.000000 0.993712 0.111963
vn 1.000000 0.000000 0.000000
vn 1.000000 0.000000 0.000000
vn 1.000000 0.000000 -0.000000
vn 1.000000 0.000000 -0.000000
vn 1.000000 0.000000 -0.000000
vn 1.000000 0.000000 0.000000
vn 1.000000 -0.000000 0.000000
vn 1.000000 -0.000000 0.000000
vn 1.000000 0.000000 0.000000
vn 1.000000 0.000000 0.000000
vn 1.000000 -0.000000 0.000000
vn 1.000000 -0.000000 0.000000
vn 1.000000 -0.000000 0.000000
vn 1.000000 -0.000000 0.000000
vn 1.000000 -0.000000 0.000000
vn 1.000000 0.000000 0.000000
vn 1.000000 0.000000 -0.000000
vn 1.000000 0.000002 -0.000004
vn 1.000000 0.000000 -0.000000
vn 1.000000 0.000000 0.000000
vn 1.000000 -0.000000 0.000000
vn 1.000000 -0.000000 0.000000
vn 1.000000 0.000000 0.000000
vn 1.000000 0.000000 0.000000
vn 1.000000 -0.000000 0.000000
vn 1.000000 0.000000 -0.000000
vn 1.000000 0.000000 0.000000
vn 1.000000 0.000000 0.000000
vn 1.000000 0.000000 -0.000000
vn 1.000000 0.000000 0.000000
vn 1.000000 0.000000 0.000000
vn 1.000000 -0.000000 -0.000000
vn 1.000000 -0.000000 -0.000000
vn 1.000000 -0.000000 0.000000
vn 1.000000 0.000000 -0.000000
vn 1.000000 -0.000000 0.000000
vn 1.000000 -0.000000 0.000000
vn 1.000000 0.000000 -0.000000
vn 1.000000 -0.000002 -0.000004
vn 1.000000 -0.000000 0.000000
vn 1.000000 -0.000001 -0.000000
vn 1.000000 0.000000 0.000000
vn 1.000000 -0.000000 0.000000
vn 1.000000 -0.000000 0.000000
vn 1.000000 -0.000000 0.000000
vn 1.000000 -0.000000 0.000000
vn 1.000000 -0.000000 0.000000
vn 1.000000 0.000000 -0.000000
vn 1.000000 0.000000 0.000000
vn 1.000000 -0.000001 0.000000
vn 1.000000 -0.000001 0.000000
vn 1.000000 -0.000000 0.000000
vn 1.000000 -0.000001 0.000000
vn 1.000000 0.000000 -0.000000
vn 1.000000 0.000000 0.000000
vn 1.000000 0.000000 0.000000
vn 1.000000 -0.000001 0.000000
vn 1.000000 -0.000004 -0.000003
vn 1.000000 -0.000001 0.000001
vn 1.000000 -0.000000 0.000000
vn 1.000000 -0.000000 -0.000000
vn 1.000000 0.000000 -0.000000
vn 1.000000 0.000000 -0.000000
vn 1.000000 0.000000 0.000000
vn -0.000000 0.111962 -0.993712
vn 0.000000 0.330282 -0.943882
vn -0.000000 0.111963 -0.993712
vn 0.000000 0.532030 -0.846726
vn -0.000000 0.330279 -0.943883
vn 0.000000 0.707107 -0.707107
vn 0.000000 0.532030 -0.846726
vn 0.000000 0.846724 -0.532033
vn 0.000000 0.707107 -0.707107
vn 0.000000 0.943882 -0.330282
vn 0.000000 0.846728 -0.532026
vn 0.000000 0.993712 -0.111963
vn 0.000000 0.943883 -0.330280
vn 0.000000 0.993712 -0.111963
vn -1.000000 0.000000 0.000000
vn -1.000000 0.000000 0.000000
vn -1.000000 0.000000 0.000000
vn -1.000000 0.000000 0.000000
vn -1.000000 0.000000 0.000000
vn -1.000000 0.000000 0.000000
vn -1.000000 -0.000000 0.000000
vn -1.000000 -0.000000 0.000000
vn -1.000000 -0.000000 0.000000
vn -1.000000 -0.000000 0.000000
vn -1.000000 -0.000000 0.000000
vn -1.000000 0.000000 0.000000
vn -1.000000 0.000000 -0.000000
vn -1.000000 -0.000000 0.000000
vn -1.000000 -0.000000 0.000000
vn -1.000000 0.000000 0.000000
vn -1.000000 -0.000000 0.000000
vn -1.000000 -0.000000 0.000000
vn -1.000000 0.000000 0.000000
vn -1.000000 0.000000 0.000000
vn -1.000000 0.000000 0.000000
vn -1.000000 0.000000 0.000000
vn -1.000000 0.000000 0.000000
vn -1.000000 0.000000 -0.000000
vn -1.000000 -0.000000 0.000000
vn -1.000000 0.000000 0.000000
vn -1.000000 0.000000 0.000000
vn -1.000000 0.000000 0.000000
vn -1.000000 0.000000 0.000000
vn -1.000000 0.000000 0.000000
vn -1.000000 0.000000 0.000000
vn -1.000000 0.000000 0.000000
vn -1.000000 0.000000 -0.000000
vn -1.000000 0.000000 0.000000
vn -1.000000 0.000000 0.000000
vn -1.000000 -0.000000 0.000000
vn -1.000000 -0.000000 0.000000
vn -1.000000 0.000000 0.000000
vn -1.000000 -0.000000 0.000000
vn -1.000000 -0.000000 0.000000
vn -1.000000 0.000000 0.000000
vn -1.000000 -0.000000 0.000000
vn -1.000000 0.000000 -0.000000
vn -1.000000 -0.000000 0.000000
vn -1.000000 -0.000000 0.000000
vn -1.000000 -0.000000 0.000000
vn -1.000000 -0.000000 0.000000
vn -1.000000 0.000000 0.000000
vn -1.000000 0.000000 0.000000
vn -1.000000 -0.000000 0.000000
vn -1.000000 0.000000 0.000000
vn -1.000000 0.000000 0.000000
vn -1.000000 -0.000000 0.000000
vn -1.000000 0.000000 -0.000000
vn -1.000000 0.000000 0.000000
vn -1.000000 0.000000 0.000000
vn -1.000000 0.000000 0.000000
vn -1.000000 0.000000 0.000000
vn -1.000000 0.000000 0.000000
vn -1.000000 0.000000 0.000000
vn -1.000000 0.000000 0.000000
vn -1.000000 0.000000 -0.000000
vn -1.000000 0.000000 0.000000
vn -1.000000 0.000000 0.000000
vn 0.000000 -0.000000 1.000000
vn 0.000000 -0.000000 1.000000
vn -0.000000 0.000000 -1.000000
vn -0.000000 0.000000 -1.000000
vn -0.000000 -0.111963 -0.993712
vn -0.000000 -0.330276 -0.943884
vn -0.000000 -0.111963 -0.993712
vn -0.000000 -0.532033 -0.846724
vn -0.000000 -0.330281 -0.943883
vn -0.000000 -0.707106 -0.707107
vn -0.000000 -0.532033 -0.846723
vn -0.000000 -0.846723 -0.532034
vn -0.000000 -0.707107 -0.707107
vn -0.000000 -0.943883 -0.330279
vn -0.000000 -0.846723 -0.532034
vn -0.000000 -0.993712 -0.111965
vn -0.000000 -0.943883 -0.330279
vn -0.000000 -0.993712 -0.111964
vn -0.000000 -1.000000 0.000000
vn -0.000000 -1.000000 0.000000
vn 0.000000 -0.111967 0.993712
vn 0.000000 -0.111963 0.993712
vn 0.000000 -0.330281 0.943883
vn 0.000000 -0.330281 0.943883
vn -0.000000 -0.532031 0.846725
vn -0.000000 -0.532030 0.846725
vn -0.000000 -0.707108 0.707106
vn -0.000000 -0.707107 0.707107
vn -0.000000 -0.846725 0.532031
vn -0.000000 -0.846725 0.532032
vn -0.000000 -0.943884 0.330278
vn -0.000000 -0.943884 0.330279
vn -0.000000 -0.993712 0.111965
vn -0.000000 -0.993712 0.111965
vn -0.038342 -0.996169 0.078592
vn -0.000000 -1.000000 0.000000
vn -0.000000 -1.000000 0.000000
vn -0.000000 -1.000000 0.000000
vn -0.037565 -0.996358 -0.076552
vn -0.042935 0.000000 -0.999078
vn -0.042935 0.000000 -0.999078
vn -0.039178 0.999232 0.000000
vn -0.040215 0.999191 0.000524
vn -0.038345 -0.078483 0.996178
vn 0.000000 -0.000000 1.000000
vn 0.000000 0.000000 1.000000
vn 0.000000 0.000000 1.000000
vn -0.038345 0.078483 0.996178
vn 0.042935 -0.000000 0.999078
vn 0.042935 -0.000000 0.999078
vn 0.040043 0.999198 0.000000
vn 0.039187 0.999232 -0.000435
vn 0.041630 -0.000000 -0.999133
vn 0.044581 0.001493 -0.999005
vn 0.039042 -0.111877 -0.992955
vn 0.035539 -0.330072 -0.943286
vn 0.033364 -0.531737 -0.846252
vn 0.032627 -0.706728 -0.706732
vn 0.033364 -0.846253 -0.531735
vn 0.035539 -0.943287 -0.330070
vn 0.039042 -0.992955 -0.111879
vn 0.039178 -0.999232 -0.000000
vn 0.041605 -0.999133 -0.001227
vn -0.996038 0.088922 0.000943
vn -0.999765 -0.000000 -0.021695
vn -1.000000 0.000000 -0.000000
vn -0.995299 -0.086997 0.042565
vn -0.999793 0.014384 -0.014405
vn -0.999766 0.021654 0.000000
vn -0.999766 0.021654 0.000001
vn -0.999766 0.021654 0.000000
vn -0.999766 0.021654 0.000000
vn -0.999766 0.021654 0.000000
vn -0.999766 0.021654 0.000000
vn -0.999766 0.021654 0.000000
vn -0.999766 0.021654 0.000000
vn -0.179104 0.000000 -0.983830
vn 0.999999 -0.000000 0.001395
vn 0.999999 -0.000766 0.000626
f 1//1 2//1 3//1
f 4//2 2//2 1//2
f 5//3 6//3 7//3
f 5//4 7//4 8//4
f 9//5 8//5 10//5
f 9//6 5//6 8//6
f 11//7 10//7 12//7
f 11//8 9//8 10//8
f 13//9 12//9 14//9
f 13//10 11//10 12//10
f 15//11 14//11 16//11
f 15//12 13//12 14//12
f 17//13 16//13 18//13
f 17//14 15//14 16//14
f 3//15 18//15 1//15
f 3//16 17//16 18//16
f 13//17 19//17 20//17
f 21//18 22//18 23//18
f 24//19 22//19 25//19
f 25//20 22//20 21//20
f 15//21 26//21 13//21
f 13//22 26//22 19//22
f 24//23 27//23 22//23
f 28//24 29//24 30//24
f 15//25 31//25 26//25
f 22//26 32//26 33//26
f 27//27 32//27 22//27
f 34//28 35//28 36//28
f 36//29 35//29 37//29
f 37//30 35//30 38//30
f 38//31 35//31 28//31
f 28//32 35//32 29//32
f 29//33 39//33 30//33
f 3//34 40//34 17//34
f 17//35 40//35 15//35
f 15//36 40//36 31//36
f 41//37 42//37 43//37
f 43//38 42//38 34//38
f 33//39 44//39 45//39
f 34//40 42//40 35//40
f 32//41 44//41 33//41
f 39//42 46//42 30//42
f 44//43 47//43 45//43
f 41//44 48//44 42//44
f 46//45 49//45 30//45
f 44//46 50//46 47//46
f 41//47 51//47 48//47
f 49//48 6//48 30//48
f 41//49 52//49 51//49
f 6//50 53//50 30//50
f 5//51 53//51 6//51
f 5//52 9//52 53//52
f 2//53 54//53 3//53
f 52//54 55//54 51//54
f 56//55 54//55 57//55
f 57//56 54//56 2//56
f 3//57 54//57 40//57
f 53//58 11//58 58//58
f 59//59 60//59 61//59
f 9//60 11//60 53//60
f 61//61 60//61 62//61
f 62//62 60//62 63//62
f 63//63 64//63 65//63
f 60//64 64//64 63//64
f 52//65 66//65 55//65
f 56//66 67//66 54//66
f 65//67 68//67 56//67
f 11//68 13//68 58//68
f 56//69 68//69 67//69
f 64//70 69//70 65//70
f 58//71 13//71 70//71
f 13//72 20//72 70//72
f 65//73 71//73 68//73
f 69//74 72//74 65//74
f 65//75 72//75 71//75
f 44//76 60//76 50//76
f 50//77 60//77 59//77
f 21//78 23//78 73//78
f 73//79 23//79 52//79
f 52//80 23//80 66//80
f 74//81 59//81 61//81
f 75//82 61//82 62//82
f 75//83 74//83 61//83
f 76//84 62//84 63//84
f 76//85 75//85 62//85
f 77//86 63//86 65//86
f 77//87 76//87 63//87
f 78//88 65//88 56//88
f 78//89 77//89 65//89
f 79//90 56//90 57//90
f 79//91 78//91 56//91
f 80//92 57//92 2//92
f 80//93 79//93 57//93
f 4//94 80//94 2//94
f 81//95 82//95 83//95
f 84//96 78//96 79//96
f 85//97 78//97 86//97
f 86//98 78//98 84//98
f 87//99 88//99 81//99
f 81//100 88//100 82//100
f 85//101 89//101 78//101
f 90//102 14//102 91//102
f 91//103 14//103 92//103
f 92//104 14//104 93//104
f 93//105 14//105 94//105
f 87//106 95//106 88//106
f 78//107 96//107 77//107
f 94//108 12//108 97//108
f 89//109 96//109 78//109
f 14//110 12//110 94//110
f 98//111 16//111 99//111
f 99//112 16//112 90//112
f 90//113 16//113 14//113
f 100//114 101//114 102//114
f 102//115 101//115 87//115
f 87//116 101//116 95//116
f 12//117 10//117 97//117
f 77//118 103//118 76//118
f 96//119 103//119 77//119
f 10//120 8//120 97//120
f 103//121 75//121 76//121
f 98//122 18//122 16//122
f 98//123 1//123 18//123
f 103//124 74//124 75//124
f 8//125 7//125 97//125
f 100//126 104//126 101//126
f 7//127 105//127 97//127
f 106//128 105//128 7//128
f 107//129 105//129 106//129
f 107//130 108//130 105//130
f 109//131 110//131 111//131
f 112//132 4//132 98//132
f 111//133 110//133 113//133
f 113//134 110//134 114//134
f 98//135 4//135 1//135
f 108//136 115//136 105//136
f 105//137 115//137 116//137
f 117//138 118//138 119//138
f 119//139 118//139 104//139
f 104//140 118//140 101//140
f 114//141 120//141 121//141
f 110//142 120//142 114//142
f 112//143 80//143 4//143
f 115//144 81//144 116//144
f 117//145 122//145 118//145
f 120//146 123//146 121//146
f 121//147 124//147 117//147
f 116//148 81//148 125//148
f 117//149 124//149 122//149
f 81//150 83//150 125//150
f 121//151 126//151 124//151
f 123//152 127//152 121//152
f 121//153 127//153 126//153
f 112//154 79//154 80//154
f 103//155 110//155 74//155
f 74//156 110//156 109//156
f 84//157 79//157 128//157
f 128//158 79//158 112//158
f 7//159 6//159 106//159
f 106//160 6//160 49//160
f 59//161 109//161 50//161
f 59//162 74//162 109//162
f 50//163 109//163 111//163
f 47//164 111//164 113//164
f 47//165 50//165 111//165
f 45//166 113//166 114//166
f 45//167 47//167 113//167
f 33//168 114//168 121//168
f 33//169 45//169 114//169
f 22//170 121//170 117//170
f 22//171 33//171 121//171
f 23//172 117//172 119//172
f 23//173 22//173 117//173
f 66//174 119//174 104//174
f 66//175 23//175 119//175
f 55//176 66//176 104//176
f 55//177 104//177 51//177
f 51//178 104//178 100//178
f 107//179 49//179 46//179
f 107//180 106//180 49//180
f 108//181 46//181 39//181
f 108//182 107//182 46//182
f 115//183 39//183 29//183
f 115//184 108//184 39//184
f 81//185 29//185 35//185
f 81//186 115//186 29//186
f 87//187 35//187 42//187
f 87//188 81//188 35//188
f 102//189 42//189 48//189
f 102//190 87//190 42//190
f 100//191 48//191 51//191
f 100//192 102//192 48//192
f 129//193 41//193 130//193
f 131//194 41//194 129//194
f 52//195 41//195 131//195
f 132//196 52//196 131//196
f 133//197 52//197 132//197
f 133//198 134//198 44//198
f 134//199 60//199 44//199
f 54//200 134//200 40//200
f 40//201 134//201 135//201
f 30//202 136//202 130//202
f 53//203 137//203 30//203
f 30//204 137//204 136//204
f 53//205 138//205 137//205
f 53//206 135//206 138//206
f 139//207 97//207 105//207
f 140//208 97//208 139//208
f 141//209 112//209 98//209
f 141//210 98//210 140//210
f 110//211 103//211 142//211
f 103//212 141//212 142//212
f 120//213 110//213 142//213
f 123//214 120//214 142//214
f 127//215 123//215 142//215
f 142//216 126//216 127//216
f 124//217 126//217 142//217
f 122//218 124//218 142//218
f 118//219 122//219 142//219
f 101//220 118//220 139//220
f 118//221 142//221 139//221
f 135//222 134//222 143//222
f 143//223 134//223 144//223
f 144//224 145//224 146//224
f 146//225 145//225 130//225
f 134//226 145//226 144//226
f 134//227 147//227 145//227
f 134//228 148//228 147//228
f 134//229 149//229 148//229
f 134//230 150//230 149//230
f 134//231 151//231 150//231
f 134//232 152//232 151//232
f 134//233 153//233 152//233
f 134//234 154//234 153//234
f 134//235 133//235 154//235
f 139//236 141//236 140//236
f 142//237 141//237 139//237
