# Created by FreeCAD <http://www.freecadweb.org>
v 0.454996 0.014998 -0.389996
v -0.445004 0.014998 -0.389996
v -0.445004 0.794998 -0.389996
v 0.454996 0.794998 -0.389996
v 0.454996 0.004998 -0.389996
v 0.454996 0.005249 -0.392221
v 0.454996 0.005989 -0.394335
v 0.454996 0.007180 -0.396231
v 0.454996 0.008763 -0.397814
v 0.454996 0.010659 -0.399006
v 0.454996 0.012773 -0.399745
v 0.454996 0.014998 -0.399996
v 0.454996 0.004998 0.390004
v 0.454996 0.794998 -0.399996
v 0.454996 0.007180 0.396239
v 0.454996 0.014998 0.390004
v 0.454996 0.005989 0.394343
v 0.454996 0.005249 0.392229
v 0.454996 0.797223 -0.399745
v 0.454996 0.799337 -0.399006
v 0.454996 0.801233 -0.397814
v 0.454996 0.008763 0.397822
v 0.454996 0.802817 -0.396231
v 0.454996 0.010659 0.399014
v 0.454996 0.804008 -0.394335
v 0.454996 0.012773 0.399753
v 0.454996 0.804748 -0.392221
v 0.454996 0.014998 0.400004
v 0.454996 0.804998 -0.389996
v 0.454996 0.794998 0.390004
v 0.454996 0.794998 0.400004
v 0.454996 0.804998 0.390004
v 0.454996 0.797223 0.399753
v 0.454996 0.804747 0.392229
v 0.454996 0.799337 0.399014
v 0.454996 0.804008 0.394343
v 0.454996 0.801233 0.397822
v 0.454996 0.802817 0.396239
v -0.445004 0.794998 0.390004
v -0.445004 0.804998 -0.389996
v -0.445004 0.804748 -0.392221
v -0.445004 0.804008 -0.394335
v -0.445004 0.802817 -0.396231
v -0.445004 0.801233 -0.397814
v -0.445004 0.799337 -0.399006
v -0.445004 0.797224 -0.399745
v -0.445004 0.794998 -0.399996
v -0.445004 0.014998 -0.399996
v -0.445004 0.012773 -0.399745
v -0.445004 0.010659 -0.399006
v -0.445004 0.008763 -0.397814
v -0.445004 0.804998 0.390004
v -0.445004 0.802817 0.396239
v -0.445004 0.804008 0.394343
v -0.445004 0.804748 0.392229
v -0.445004 0.007180 -0.396231
v -0.445004 0.801233 0.397822
v -0.445004 0.005989 -0.394335
v -0.445004 0.799337 0.399014
v -0.445004 0.005249 -0.392221
v -0.445004 0.797223 0.399753
v -0.445004 0.004998 -0.389996
v -0.445004 0.794998 0.400004
v -0.445004 0.014998 0.390004
v -0.445004 0.004998 0.390004
v -0.445004 0.014998 0.400004
v -0.445004 0.005249 0.392229
v -0.445004 0.012773 0.399753
v -0.445004 0.005989 0.394343
v -0.445004 0.010659 0.399014
v -0.445004 0.007180 0.396239
v -0.445004 0.008763 0.397822
v 0.798730 0.011865 0.393137
v 0.798730 0.798131 0.393137
v 0.798730 0.798131 -0.393129
v 0.798730 0.011865 -0.393129
v -0.788337 0.798332 -0.393329
v -0.787848 0.011420 -0.393574
v -0.788137 0.798733 0.393137
v -0.788337 0.011665 0.393337
vn 0.000000 0.000000 -1.000000
vn 0.000000 0.000000 -1.000000
vn -1.000000 0.000000 0.000000
vn -1.000000 0.000000 0.000000
vn -1.000000 0.000000 0.000000
vn -1.000000 0.000000 0.000000
vn -1.000000 0.000000 0.000000
vn -1.000000 0.000000 0.000000
vn -1.000000 0.000000 0.000000
vn -1.000000 0.000000 0.000000
vn -1.000000 0.000000 0.000000
vn -1.000000 0.000000 -0.000000
vn -1.000000 0.000000 -0.000000
vn -1.000000 0.000000 -0.000000
vn -1.000000 0.000000 0.000000
vn -1.000000 0.000000 0.000000
vn -1.000000 0.000000 0.000000
vn -1.000000 0.000000 0.000000
vn -1.000000 0.000000 -0.000000
vn -1.000000 0.000000 0.000000
vn -1.000000 0.000000 0.000000
vn -1.000000 0.000000 0.000000
vn -1.000000 0.000000 0.000000
vn -1.000000 0.000000 0.000000
vn -1.000000 0.000000 0.000000
vn -1.000000 0.000000 0.000000
vn -1.000000 0.000000 0.000000
vn -1.000000 0.000000 -0.000000
vn -1.000000 0.000000 0.000003
vn -1.000000 0.000000 0.000000
vn -1.000000 0.000003 0.000000
vn -1.000000 0.000000 0.000003
vn -1.000000 0.000003 0.000000
vn -1.000000 0.000001 0.000003
vn -1.000000 0.000003 0.000001
vn -1.000000 0.000002 0.000003
vn -1.000000 0.000002 0.000002
vn -1.000000 0.000003 0.000002
vn 0.000000 1.000000 0.000000
vn 0.000000 1.000000 0.000000
vn 1.000000 0.000000 0.000000
vn 1.000000 0.000000 0.000000
vn 1.000000 0.000000 0.000000
vn 1.000000 0.000000 0.000000
vn 1.000000 0.000000 0.000000
vn 1.000000 0.000000 0.000000
vn 1.000000 0.000000 0.000000
vn 1.000000 -0.000000 0.000000
vn 1.000000 0.000000 0.000000
vn 1.000000 0.000000 -0.000000
vn 1.000000 0.000000 -0.000000
vn 1.000000 -0.000000 0.000000
vn 1.000000 0.000000 0.000000
vn 1.000000 0.000000 0.000000
vn 1.000000 0.000000 0.000000
vn 1.000000 0.000000 0.000000
vn 1.000000 0.000000 0.000000
vn 1.000000 0.000000 0.000000
vn 1.000000 0.000000 0.000000
vn 1.000000 0.000000 0.000000
vn 1.000000 0.000000 0.000000
vn 1.000000 0.000000 0.000000
vn 1.000000 0.000000 0.000000
vn 1.000000 0.000000 0.000000
vn 1.000000 0.000000 0.000000
vn 1.000000 -0.000000 0.000000
vn 1.000000 -0.000003 -0.000000
vn 1.000000 0.000000 0.000000
vn 1.000000 -0.000000 0.000003
vn 1.000000 -0.000003 0.000000
vn 1.000000 -0.000000 0.000003
vn 1.000000 -0.000003 0.000001
vn 1.000000 -0.000001 0.000003
vn 1.000000 -0.000003 0.000002
vn 1.000000 -0.000002 0.000003
vn 1.000000 -0.000002 0.000002
vn -0.000000 -1.000000 -0.000000
vn -0.000000 -1.000000 -0.000000
vn 0.000000 -0.000000 1.000000
vn -0.000000 -0.000000 1.000000
vn 0.019974 -0.000000 0.999801
vn 0.019974 -0.000000 0.999800
vn 0.019974 0.999800 0.000000
vn 0.019974 0.999801 0.000000
vn 0.019974 0.000000 -0.999800
vn 0.019974 0.000000 -0.999801
vn 0.019974 -0.999800 -0.000000
vn 0.019974 -0.999801 -0.000000
vn -0.019414 0.000000 -0.999812
vn -0.018731 0.000300 -0.999825
vn -0.018206 0.993552 -0.111909
vn -0.016570 0.943747 -0.330253
vn -0.015555 0.846624 -0.531964
vn -0.015211 0.707025 -0.707025
vn -0.015555 0.531964 -0.846624
vn -0.016570 0.330246 -0.943750
vn -0.018205 0.111935 -0.993549
vn -0.018257 0.999833 0.000000
vn -0.019409 0.999812 -0.000505
vn -0.019414 -0.000000 0.999812
vn -0.020006 0.000260 0.999800
vn -0.018205 -0.993549 0.111932
vn -0.016570 -0.943754 0.330232
vn -0.015555 -0.846621 0.531969
vn -0.015211 -0.707027 0.707023
vn -0.015555 -0.531969 0.846621
vn -0.016570 -0.330227 0.943756
vn -0.018205 -0.111949 0.993547
vn -0.018731 -0.999825 0.000299
vn -0.019414 -0.999812 -0.000000
vn 1.000000 -0.000000 -0.000000
vn 1.000000 -0.000000 -0.000000
vn -1.000000 -0.000622 -0.000622
vn -1.000000 0.000255 0.000255
f 1//1 2//1 3//1
f 4//2 1//2 3//2
f 5//3 1//3 6//3
f 6//4 1//4 7//4
f 7//5 1//5 8//5
f 8//6 1//6 9//6
f 9//7 1//7 10//7
f 10//8 1//8 11//8
f 11//9 1//9 12//9
f 5//10 13//10 1//10
f 1//11 14//11 12//11
f 15//12 16//12 17//12
f 17//13 16//13 18//13
f 18//14 16//14 13//14
f 13//15 16//15 1//15
f 14//16 4//16 19//16
f 19//17 4//17 20//17
f 20//18 4//18 21//18
f 1//19 4//19 14//19
f 15//20 22//20 16//20
f 4//21 23//21 21//21
f 22//22 24//22 16//22
f 4//23 25//23 23//23
f 24//24 26//24 16//24
f 4//25 27//25 25//25
f 26//26 28//26 16//26
f 4//27 29//27 27//27
f 4//28 30//28 29//28
f 16//29 31//29 30//29
f 28//30 31//30 16//30
f 30//31 32//31 29//31
f 31//32 33//32 30//32
f 30//33 34//33 32//33
f 33//34 35//34 30//34
f 30//35 36//35 34//35
f 35//36 37//36 30//36
f 37//37 38//37 30//37
f 30//38 38//38 36//38
f 3//39 30//39 4//39
f 39//40 30//40 3//40
f 40//41 3//41 41//41
f 41//42 3//42 42//42
f 42//43 3//43 43//43
f 43//44 3//44 44//44
f 44//45 3//45 45//45
f 45//46 3//46 46//46
f 46//47 3//47 47//47
f 3//48 48//48 47//48
f 48//49 2//49 49//49
f 49//50 2//50 50//50
f 50//51 2//51 51//51
f 3//52 2//52 48//52
f 52//53 39//53 40//53
f 53//54 39//54 54//54
f 54//55 39//55 55//55
f 55//56 39//56 52//56
f 40//57 39//57 3//57
f 2//58 56//58 51//58
f 53//59 57//59 39//59
f 2//60 58//60 56//60
f 57//61 59//61 39//61
f 2//62 60//62 58//62
f 59//63 61//63 39//63
f 2//64 62//64 60//64
f 61//65 63//65 39//65
f 63//66 64//66 39//66
f 64//67 65//67 2//67
f 2//68 65//68 62//68
f 63//69 66//69 64//69
f 64//70 67//70 65//70
f 66//71 68//71 64//71
f 64//72 69//72 67//72
f 68//73 70//73 64//73
f 64//74 71//74 69//74
f 70//75 72//75 64//75
f 64//76 72//76 71//76
f 1//77 64//77 2//77
f 16//78 64//78 1//78
f 30//79 39//79 64//79
f 16//80 30//80 64//80
f 73//81 31//81 28//81
f 73//82 74//82 31//82
f 74//83 75//83 29//83
f 32//84 74//84 29//84
f 75//85 76//85 14//85
f 14//86 76//86 12//86
f 73//87 13//87 76//87
f 76//88 13//88 5//88
f 47//89 48//89 77//89
f 77//90 48//90 78//90
f 77//91 40//91 41//91
f 77//92 41//92 42//92
f 43//93 77//93 42//93
f 44//94 77//94 43//94
f 77//95 44//95 45//95
f 77//96 45//96 46//96
f 77//97 46//97 47//97
f 79//98 52//98 40//98
f 79//99 40//99 77//99
f 66//100 63//100 80//100
f 80//101 63//101 79//101
f 80//102 65//102 67//102
f 80//103 67//103 69//103
f 71//104 80//104 69//104
f 80//105 71//105 72//105
f 80//106 72//106 70//106
f 80//107 70//107 68//107
f 80//108 68//108 66//108
f 62//109 80//109 78//109
f 65//110 80//110 62//110
f 75//111 74//111 76//111
f 74//112 73//112 76//112
f 80//113 77//113 78//113
f 80//114 79//114 77//114
