# Created by FreeCAD <http://www.freecadweb.org>
v -0.949998 0.499999 -0.499999
v -1.949998 0.499999 0.499999
v -0.949998 0.499999 0.499999
v -1.949998 0.499999 -0.499999
v -0.949998 0.000000 0.499999
v -1.949998 0.000000 0.499999
v -0.949998 0.000000 -0.499999
v -1.949998 0.000000 -0.499999
v -1.399998 0.000000 -1.000000
v 1.400004 0.000000 1.000001
v -1.399998 0.000000 1.000001
v 1.400004 0.000000 -1.000000
v -1.399998 1.500000 -1.000000
v -1.399998 1.500000 1.000001
v 1.400004 1.500000 1.000001
v 1.400004 1.500000 -1.000000
v 1.000015 0.000000 -0.499994
v 1.950000 0.000000 0.499999
v 0.999944 0.000000 0.500103
v 1.950000 0.000000 -0.499997
v 0.999944 0.499999 0.500103
v 1.000015 0.499999 -0.499994
v 1.950000 0.499999 0.499999
v 1.950000 0.499999 -0.499999
vn 0.000000 1.000000 -0.000000
vn 0.000000 1.000000 0.000000
vn 0.000000 0.000000 1.000000
vn 0.000000 0.000000 1.000000
vn 1.000000 -0.000000 0.000000
vn 1.000000 0.000000 -0.000000
vn 0.000000 0.000000 -1.000000
vn 0.000000 0.000000 -1.000000
vn -1.000000 0.000000 0.000000
vn -1.000000 -0.000000 0.000000
vn -0.000000 -1.000000 -0.000000
vn -0.000000 -1.000000 -0.000000
vn -0.000000 -1.000000 -0.000000
vn -0.000000 -1.000000 -0.000000
vn -1.000000 0.000000 0.000000
vn -1.000000 -0.000000 0.000000
vn 0.000000 0.000000 1.000000
vn 0.000000 0.000000 1.000000
vn 1.000000 -0.000000 0.000000
vn 1.000000 0.000000 0.000000
vn 0.000000 0.000000 -1.000000
vn 0.000000 0.000000 -1.000000
vn 0.000000 1.000000 0.000000
vn 0.000000 1.000000 -0.000000
vn -0.000000 -1.000000 -0.000000
vn -0.000000 -1.000000 -0.000000
vn -1.000000 -0.000000 -0.000071
vn -1.000000 0.000000 -0.000071
vn 0.000110 0.000000 1.000000
vn 0.000110 0.000000 1.000000
vn 1.000000 -0.000000 0.000000
vn 1.000000 -0.000000 0.000000
vn -0.000004 -0.000000 -1.000000
vn -0.000005 -0.000003 -1.000000
vn 0.000000 1.000000 0.000000
vn 0.000000 1.000000 -0.000000
f 1//1 2//1 3//1
f 1//2 4//2 2//2
f 5//3 2//3 6//3
f 3//4 2//4 5//4
f 5//5 1//5 3//5
f 7//6 1//6 5//6
f 8//7 1//7 7//7
f 4//8 1//8 8//8
f 4//9 8//9 2//9
f 2//10 8//10 6//10
f 8//11 7//11 5//11
f 8//12 5//12 6//12
f 9//13 10//13 11//13
f 9//14 12//14 10//14
f 13//15 9//15 14//15
f 14//16 9//16 11//16
f 10//17 14//17 11//17
f 15//18 14//18 10//18
f 10//19 12//19 15//19
f 12//20 16//20 15//20
f 13//21 12//21 9//21
f 13//22 16//22 12//22
f 15//23 13//23 14//23
f 16//24 13//24 15//24
f 17//25 18//25 19//25
f 17//26 20//26 18//26
f 21//27 17//27 19//27
f 21//28 22//28 17//28
f 18//29 21//29 19//29
f 23//30 21//30 18//30
f 18//31 20//31 23//31
f 20//32 24//32 23//32
f 22//33 20//33 17//33
f 22//34 24//34 20//34
f 23//35 22//35 21//35
f 24//36 22//36 23//36
