# Created by FreeCAD <http://www.freecadweb.org>
v 1.185002 0.790699 -0.100001
v 0.555001 0.790699 -1.239999
v 0.555001 0.790699 -0.100001
v 1.185002 0.790699 -1.239999
v 1.185002 0.780699 -0.100001
v 1.185002 0.780699 -1.239999
v 0.555001 0.780699 -1.239999
v 0.555001 0.780699 -0.100001
v 0.549946 0.790682 -1.241983
v 2.140054 0.790682 -1.241983
v 2.245000 0.260706 -1.345000
v 0.445001 0.260706 -1.345000
v 2.140054 0.788774 -1.232167
v 2.245000 0.258798 -1.335184
v 0.549946 0.788774 -1.232167
v 0.445001 0.258798 -1.335184
v 1.346002 0.437689 -0.137915
v 1.346002 0.455123 -0.042978
v 1.346002 0.436706 -0.137724
v 1.346002 0.456106 -0.043169
v 1.345002 0.436706 -0.137724
v 1.345002 0.437689 -0.137915
v 1.345002 0.455123 -0.042978
v 1.345002 0.456106 -0.043169
v 0.548017 0.790682 -0.099945
v 0.548017 0.790682 -1.240055
v 0.445001 0.260706 -1.345000
v 0.445001 0.260706 0.005000
v 0.557834 0.788774 -1.240055
v 0.454817 0.258798 -1.345000
v 0.557834 0.788774 -0.099945
v 0.454817 0.258798 0.005000
v 0.587916 0.437689 -0.668999
v 0.492979 0.455123 -0.668999
v 0.587725 0.436706 -0.668999
v 0.493169 0.456106 -0.668999
v 0.587725 0.436706 -0.670000
v 0.587916 0.437689 -0.670000
v 0.492979 0.455123 -0.670000
v 0.493169 0.456106 -0.670000
v 2.135000 0.790699 -0.100001
v 1.185002 0.790699 -1.239999
v 1.185002 0.790699 -0.100001
v 2.135000 0.790699 -1.239999
v 2.135000 0.780699 -0.100001
v 2.135000 0.780699 -1.239999
v 1.185002 0.780699 -1.239999
v 1.185002 0.780699 -0.100001
v 0.445001 0.262700 -0.870000
v -0.004998 0.262700 -0.470000
v 0.445001 0.262700 -0.470000
v -0.004998 0.262700 -0.870000
v 0.445001 0.012700 -0.870000
v 0.445001 0.012700 -0.470000
v -0.004998 0.012700 -0.470000
v -0.004998 0.012700 -0.870000
v 1.343998 0.437689 -1.202085
v 1.343998 0.455123 -1.297022
v 1.343998 0.436706 -1.202276
v 1.343998 0.456106 -1.296831
v 1.344999 0.436706 -1.202276
v 1.344999 0.437689 -1.202085
v 1.344999 0.455123 -1.297022
v 1.344999 0.456106 -1.296831
v 2.141983 0.790682 -1.240055
v 2.141983 0.790682 -0.099945
v 2.245000 0.260706 0.005000
v 2.245000 0.260706 -1.345000
v 2.132167 0.788774 -0.099945
v 2.235184 0.258798 0.005000
v 2.132167 0.788774 -1.240055
v 2.235184 0.258798 -1.345000
v 2.694999 0.262700 -0.870000
v 2.245000 0.262700 -0.470000
v 2.694999 0.262700 -0.470000
v 2.245000 0.262700 -0.870000
v 2.694999 0.012700 -0.870000
v 2.694999 0.012700 -0.470000
v 2.245000 0.012700 -0.470000
v 2.245000 0.012700 -0.870000
v 2.140054 0.790682 -0.098017
v 0.549946 0.790682 -0.098017
v 0.445001 0.260706 0.005000
v 2.245000 0.260706 0.005000
v 0.549946 0.788774 -0.107833
v 0.445001 0.258798 -0.004816
v 2.140054 0.788774 -0.107833
v 2.245000 0.258798 -0.004816
v 2.245000 0.262700 0.005000
v 0.445001 0.262700 -1.345000
v 0.445001 0.262700 0.005000
v 2.245000 0.262700 -1.345000
v 2.245000 0.012700 0.005000
v 2.245000 0.012700 -1.345000
v 0.445001 0.012700 -1.345000
v 0.445001 0.012700 0.005000
v 2.102084 0.437689 -0.671001
v 2.197022 0.455123 -0.671001
v 2.102275 0.436706 -0.671001
v 2.196831 0.456106 -0.671001
v 2.102275 0.436706 -0.670000
v 2.102084 0.437689 -0.670000
v 2.197022 0.455123 -0.670000
v 2.196831 0.456106 -0.670000
vn 0.000000 1.000000 0.000000
vn 0.000000 1.000000 -0.000000
vn 1.000000 -0.000000 0.000000
vn 1.000000 0.000000 0.000000
vn 0.000000 0.000000 -1.000000
vn -0.000000 -0.000000 -1.000000
vn -1.000000 -0.000000 0.000000
vn -1.000000 0.000000 0.000000
vn 0.000000 0.000000 1.000000
vn 0.000000 -0.000000 1.000000
vn 0.000000 -1.000000 0.000000
vn 0.000000 -1.000000 0.000000
vn 0.000000 0.190809 -0.981627
vn 0.000000 0.190809 -0.981627
vn 0.981627 0.187304 0.036409
vn 0.981627 0.187304 0.036408
vn -0.000000 0.981627 0.190812
vn -0.000000 0.981627 0.190812
vn -0.981627 0.187304 0.036408
vn -0.981627 0.187304 0.036409
vn 0.000000 -0.981627 -0.190808
vn 0.000000 -0.981627 -0.190808
vn 0.000000 -0.190809 0.981627
vn 0.000000 -0.190809 0.981627
vn 1.000000 0.000000 -0.000000
vn 1.000000 0.000000 0.000000
vn 0.000000 -0.190813 -0.981626
vn 0.000000 -0.190813 -0.981626
vn 0.000000 -0.981627 0.190809
vn 0.000000 -0.981627 0.190809
vn 0.000000 0.190809 0.981627
vn 0.000000 0.190809 0.981627
vn 0.000000 0.981627 -0.190809
vn 0.000000 0.981627 -0.190809
vn -1.000000 0.000000 0.000000
vn -1.000000 -0.000000 0.000000
vn -0.981627 0.190809 0.000000
vn -0.981627 0.190809 0.000000
vn 0.036409 0.187304 -0.981627
vn 0.036408 0.187304 -0.981627
vn 0.190812 0.981627 0.000000
vn 0.190812 0.981627 0.000000
vn 0.036408 0.187304 0.981627
vn 0.036409 0.187304 0.981627
vn -0.190806 -0.981628 -0.000000
vn -0.190806 -0.981628 0.000000
vn 0.981627 -0.190809 0.000000
vn 0.981627 -0.190809 0.000000
vn 0.000000 0.000000 1.000000
vn 0.000000 0.000000 1.000000
vn 0.981624 -0.190827 0.000000
vn 0.981624 -0.190827 0.000000
vn -0.190809 -0.981627 -0.000000
vn -0.190809 -0.981627 0.000000
vn -0.981629 0.190799 0.000000
vn -0.981629 0.190799 0.000000
vn 0.190809 0.981627 0.000000
vn 0.190809 0.981627 0.000000
vn 0.000000 0.000000 -1.000000
vn 0.000000 -0.000000 -1.000000
vn 0.000000 1.000000 0.000000
vn 0.000000 1.000000 -0.000000
vn 1.000000 -0.000000 0.000000
vn 1.000000 0.000000 0.000000
vn 0.000000 0.000000 -1.000000
vn -0.000000 -0.000000 -1.000000
vn -1.000000 -0.000000 0.000000
vn -1.000000 0.000000 0.000000
vn 0.000000 0.000000 1.000000
vn 0.000000 -0.000000 1.000000
vn 0.000000 -1.000000 0.000000
vn 0.000000 -1.000000 0.000000
vn 0.000000 1.000000 -0.000000
vn 0.000000 1.000000 0.000000
vn 1.000000 0.000000 0.000000
vn 1.000000 0.000000 0.000000
vn 0.000000 0.000000 1.000000
vn 0.000000 -0.000000 1.000000
vn -1.000000 0.000000 0.000000
vn -1.000000 0.000000 0.000000
vn 0.000000 -0.000000 -1.000000
vn -0.000000 0.000000 -1.000000
vn 0.000000 -1.000000 0.000000
vn 0.000000 -1.000000 0.000000
vn -1.000000 0.000000 -0.000000
vn -1.000000 0.000000 0.000000
vn 0.000000 -0.190827 0.981624
vn 0.000000 -0.190827 0.981624
vn 0.000000 -0.981627 -0.190809
vn 0.000000 -0.981627 -0.190809
vn 0.000000 0.190827 -0.981624
vn 0.000000 0.190827 -0.981624
vn 0.000000 0.981627 0.190809
vn -0.000000 0.981627 0.190809
vn 1.000000 0.000000 0.000000
vn 1.000000 0.000000 0.000000
vn 0.981627 0.190809 -0.000000
vn 0.981627 0.190809 0.000000
vn -0.036409 0.187304 0.981627
vn -0.036407 0.187304 0.981627
vn -0.190814 0.981626 0.000000
vn -0.190814 0.981626 0.000000
vn -0.036407 0.187304 -0.981627
vn -0.036409 0.187304 -0.981627
vn 0.190804 -0.981628 0.000000
vn 0.190804 -0.981628 0.000000
vn -0.981627 -0.190809 -0.000000
vn -0.981627 -0.190809 -0.000000
vn 0.000000 1.000000 -0.000000
vn 0.000000 1.000000 0.000000
vn 1.000000 0.000000 0.000000
vn 1.000000 0.000000 0.000000
vn 0.000000 0.000000 1.000000
vn 0.000000 -0.000000 1.000000
vn -1.000000 0.000000 0.000000
vn -1.000000 0.000000 0.000000
vn 0.000000 -0.000000 -1.000000
vn -0.000000 0.000000 -1.000000
vn 0.000000 -1.000000 0.000000
vn 0.000000 -1.000000 0.000000
vn 0.000000 0.190809 0.981627
vn 0.000000 0.190809 0.981627
vn -0.981627 0.187304 -0.036409
vn -0.981627 0.187304 -0.036408
vn 0.000000 0.981627 -0.190812
vn 0.000000 0.981627 -0.190812
vn 0.981627 0.187304 -0.036408
vn 0.981627 0.187304 -0.036409
vn 0.000000 -0.981628 0.190806
vn 0.000000 -0.981628 0.190806
vn 0.000000 -0.190809 -0.981627
vn 0.000000 -0.190809 -0.981627
vn 0.000000 1.000000 0.000000
vn 0.000000 1.000000 -0.000000
vn 1.000000 -0.000000 0.000000
vn 1.000000 0.000000 0.000000
vn 0.000000 0.000000 -1.000000
vn -0.000000 -0.000000 -1.000000
vn -1.000000 -0.000000 0.000000
vn -1.000000 0.000000 0.000000
vn 0.000000 0.000000 1.000000
vn 0.000000 -0.000000 1.000000
vn 0.000000 -1.000000 0.000000
vn 0.000000 -1.000000 0.000000
vn 0.000000 0.000000 -1.000000
vn 0.000000 0.000000 -1.000000
vn -0.981624 -0.190827 -0.000000
vn -0.981624 -0.190827 -0.000000
vn 0.190809 -0.981627 0.000000
vn 0.190809 -0.981627 0.000000
vn 0.981624 0.190827 -0.000000
vn 0.981624 0.190827 0.000000
vn -0.190809 0.981627 0.000000
vn -0.190809 0.981627 0.000000
vn 0.000000 0.000000 1.000000
vn 0.000000 0.000000 1.000000
f 1//1 2//1 3//1
f 4//2 2//2 1//2
f 5//3 4//3 1//3
f 6//4 4//4 5//4
f 2//5 6//5 7//5
f 4//6 6//6 2//6
f 3//7 7//7 8//7
f 2//8 7//8 3//8
f 8//9 1//9 3//9
f 5//10 1//10 8//10
f 7//11 5//11 8//11
f 7//12 6//12 5//12
f 9//13 10//13 11//13
f 9//14 11//14 12//14
f 11//15 10//15 13//15
f 11//16 13//16 14//16
f 15//17 13//17 10//17
f 9//18 15//18 10//18
f 9//19 12//19 16//19
f 9//20 16//20 15//20
f 16//21 11//21 14//21
f 16//22 12//22 11//22
f 14//23 15//23 16//23
f 13//24 15//24 14//24
f 17//25 18//25 19//25
f 17//26 20//26 18//26
f 21//27 17//27 19//27
f 22//28 17//28 21//28
f 19//29 23//29 21//29
f 19//30 18//30 23//30
f 20//31 24//31 23//31
f 20//32 23//32 18//32
f 20//33 17//33 22//33
f 20//34 22//34 24//34
f 24//35 22//35 21//35
f 24//36 21//36 23//36
f 25//37 26//37 27//37
f 25//38 27//38 28//38
f 27//39 26//39 29//39
f 27//40 29//40 30//40
f 31//41 29//41 26//41
f 25//42 31//42 26//42
f 25//43 28//43 32//43
f 25//44 32//44 31//44
f 32//45 27//45 30//45
f 32//46 28//46 27//46
f 30//47 31//47 32//47
f 29//48 31//48 30//48
f 33//49 34//49 35//49
f 33//50 36//50 34//50
f 37//51 33//51 35//51
f 38//52 33//52 37//52
f 35//53 39//53 37//53
f 35//54 34//54 39//54
f 36//55 40//55 39//55
f 36//56 39//56 34//56
f 36//57 33//57 38//57
f 36//58 38//58 40//58
f 40//59 38//59 37//59
f 40//60 37//60 39//60
f 41//61 42//61 43//61
f 44//62 42//62 41//62
f 45//63 44//63 41//63
f 46//64 44//64 45//64
f 42//65 46//65 47//65
f 44//66 46//66 42//66
f 43//67 47//67 48//67
f 42//68 47//68 43//68
f 48//69 41//69 43//69
f 45//70 41//70 48//70
f 47//71 45//71 48//71
f 47//72 46//72 45//72
f 49//73 50//73 51//73
f 49//74 52//74 50//74
f 53//75 51//75 54//75
f 53//76 49//76 51//76
f 54//77 50//77 55//77
f 54//78 51//78 50//78
f 52//79 56//79 55//79
f 52//80 55//80 50//80
f 49//81 53//81 56//81
f 49//82 56//82 52//82
f 55//83 53//83 54//83
f 56//84 53//84 55//84
f 57//85 58//85 59//85
f 57//86 60//86 58//86
f 61//87 57//87 59//87
f 62//88 57//88 61//88
f 59//89 63//89 61//89
f 59//90 58//90 63//90
f 60//91 64//91 63//91
f 60//92 63//92 58//92
f 60//93 57//93 62//93
f 60//94 62//94 64//94
f 64//95 62//95 61//95
f 64//96 61//96 63//96
f 65//97 66//97 67//97
f 65//98 67//98 68//98
f 67//99 66//99 69//99
f 67//100 69//100 70//100
f 65//101 71//101 69//101
f 65//102 69//102 66//102
f 65//103 68//103 72//103
f 65//104 72//104 71//104
f 72//105 67//105 70//105
f 72//106 68//106 67//106
f 70//107 71//107 72//107
f 69//108 71//108 70//108
f 73//109 74//109 75//109
f 73//110 76//110 74//110
f 77//111 75//111 78//111
f 77//112 73//112 75//112
f 78//113 74//113 79//113
f 78//114 75//114 74//114
f 76//115 80//115 79//115
f 76//116 79//116 74//116
f 73//117 77//117 80//117
f 73//118 80//118 76//118
f 79//119 77//119 78//119
f 80//120 77//120 79//120
f 81//121 82//121 83//121
f 81//122 83//122 84//122
f 83//123 82//123 85//123
f 83//124 85//124 86//124
f 87//125 85//125 82//125
f 81//126 87//126 82//126
f 81//127 84//127 88//127
f 81//128 88//128 87//128
f 88//129 83//129 86//129
f 88//130 84//130 83//130
f 86//131 87//131 88//131
f 85//132 87//132 86//132
f 89//133 90//133 91//133
f 92//134 90//134 89//134
f 93//135 92//135 89//135
f 94//136 92//136 93//136
f 90//137 94//137 95//137
f 92//138 94//138 90//138
f 91//139 95//139 96//139
f 90//140 95//140 91//140
f 96//141 89//141 91//141
f 93//142 89//142 96//142
f 95//143 93//143 96//143
f 95//144 94//144 93//144
f 97//145 98//145 99//145
f 97//146 100//146 98//146
f 101//147 97//147 99//147
f 102//148 97//148 101//148
f 99//149 103//149 101//149
f 99//150 98//150 103//150
f 100//151 104//151 103//151
f 100//152 103//152 98//152
f 100//153 97//153 102//153
f 100//154 102//154 104//154
f 104//155 102//155 101//155
f 104//156 101//156 103//156
