# Created by FreeCAD <http://www.freecadweb.org>
v 0.000037 2.000000 -4.599980
v 4.099963 2.000000 -0.000020
v 4.099963 2.000000 -4.599980
v 0.000037 2.000000 -0.000020
v 0.000037 0.000001 -0.000020
v 0.000037 0.000001 -4.599980
v 4.099963 0.000001 -0.000020
v 4.099963 0.000001 -4.599980
vn 0.000000 1.000000 0.000000
vn -0.000000 1.000000 0.000000
vn -1.000000 0.000000 0.000000
vn -1.000000 0.000000 0.000000
vn 0.000000 -0.000000 1.000000
vn 0.000000 0.000000 1.000000
vn 1.000000 0.000000 0.000000
vn 1.000000 0.000000 0.000000
vn -0.000000 0.000000 -1.000000
vn 0.000000 -0.000000 -1.000000
vn -0.000000 -1.000000 0.000000
vn 0.000000 -1.000000 -0.000000
f 1//1 2//1 3//1
f 4//2 2//2 1//2
f 5//3 4//3 1//3
f 5//4 1//4 6//4
f 7//5 2//5 4//5
f 7//6 4//6 5//6
f 2//7 8//7 3//7
f 2//8 7//8 8//8
f 3//9 6//9 1//9
f 3//10 8//10 6//10
f 7//11 5//11 6//11
f 7//12 6//12 8//12
